<svg width="140" height="1441" viewBox="0 0 140 1441" fill="none" xmlns="http://www.w3.org/2000/svg">
<path d="M68.4298 294.398C64.305 294.398 60.3337 296.31 57.4176 299.752L51.4894 306.681C49.0913 309.493 45.1967 309.493 42.7986 306.681C40.4005 303.869 40.4005 299.302 42.7986 296.49L48.7268 289.561C53.9643 283.442 61.0436 280 68.4298 280C83.797 280 96.2673 294.623 96.2673 312.642C96.2673 321.304 93.332 329.605 88.1137 335.724L61.9836 366.387H96.2673C99.6631 366.387 102.407 369.604 102.407 373.585C102.407 377.567 99.6631 380.784 96.2673 380.784H47.1536C44.6787 380.784 42.4341 379.03 41.4748 376.33C40.5156 373.63 41.0528 370.548 42.7986 368.479L79.4229 325.555C82.339 322.136 83.9889 317.479 83.9889 312.642C83.9889 302.564 77.0247 294.398 68.4298 294.398Z" fill="black"/>
<path d="M76.7133 157.145C76.7133 154.512 75.2625 152.101 72.9411 150.851C70.6197 149.601 67.8073 149.735 65.5975 151.208L44.1696 165.493C40.8884 167.681 40.0179 172.1 42.2053 175.404C44.3928 178.707 48.8346 179.578 52.1158 177.39L62.428 170.493V235.715H48.1427C44.1919 235.715 41 238.907 41 242.857C41 246.808 44.1919 250 48.1427 250H69.5707H90.9986C94.9494 250 98.1413 246.808 98.1413 242.857C98.1413 238.907 94.9494 235.715 90.9986 235.715H76.7133V157.145Z" fill="black"/>
<path d="M33 55.7143C33 35.9821 48.9821 20 68.7143 20C88.4464 20 104.429 35.9821 104.429 55.7143V84.2857C104.429 104.018 88.4464 120 68.7143 120C48.9821 120 33 104.018 33 84.2857V55.7143ZM68.7143 34.2857C56.8839 34.2857 47.2857 43.8839 47.2857 55.7143V84.2857C47.2857 96.1161 56.8839 105.714 68.7143 105.714C80.5446 105.714 90.1429 96.1161 90.1429 84.2857V55.7143C90.1429 43.8839 80.5446 34.2857 68.7143 34.2857Z" fill="black"/>
<path d="M34 418.143C34 414.192 37.192 411 41.1429 411H94.7143C97.6607 411 100.295 412.808 101.366 415.554C102.438 418.299 101.701 421.424 99.5357 423.411L70.2277 450.286H75.0714C91.8348 450.286 105.429 463.879 105.429 480.643C105.429 497.406 91.8348 511 75.0714 511H57.5268C48.0625 511 39.4018 505.643 35.183 497.183L34.7589 496.335C32.9955 492.808 34.4241 488.522 37.9509 486.759C41.4777 484.996 45.7634 486.424 47.5268 489.951L47.9509 490.799C49.7589 494.437 53.4866 496.714 57.5268 496.714H75.0714C83.9554 496.714 91.1429 489.527 91.1429 480.643C91.1429 471.759 83.9554 464.571 75.0714 464.571H51.8571C48.9107 464.571 46.2768 462.763 45.2054 460.018C44.1339 457.272 44.8705 454.147 47.0357 452.161L76.3438 425.286H41.1429C37.192 425.286 34 422.094 34 418.143Z" fill="black"/>
<path d="M68.1946 551.188C69.8685 547.617 68.3508 543.354 64.7798 541.681C61.2087 540.007 56.9458 541.524 55.2719 545.095L26.6813 605.825C25.6323 608.035 25.8108 610.624 27.1053 612.7C28.3998 614.775 30.6987 616.003 33.1538 616.003H83.1483V633.858C83.1483 637.808 86.3399 641 90.2904 641C94.2408 641 97.4324 637.808 97.4324 633.858V616.003H104.574C108.525 616.003 111.717 612.811 111.717 608.861C111.717 604.91 108.525 601.719 104.574 601.719H97.4324V569.579C97.4324 565.629 94.2408 562.437 90.2904 562.437C86.3399 562.437 83.1483 565.629 83.1483 569.579V601.719H44.4025L68.1946 551.188Z" fill="black"/>
<path d="M40.2592 676.871C40.8842 673.478 43.8306 671 47.2904 671H90.1476C94.0985 671 97.2904 674.192 97.2904 678.143C97.2904 682.094 94.0985 685.286 90.1476 685.286H53.2503L48.6967 710.286H74.0761C90.8395 710.286 104.433 723.879 104.433 740.643C104.433 757.406 90.8395 771 74.0761 771H55.4378C46.6431 771 38.6074 766.022 34.6788 758.165L33.7637 756.335C32.0003 752.808 33.4288 748.522 36.9556 746.759C40.4824 744.996 44.7681 746.424 46.5315 749.951L47.4467 751.781C48.9645 754.817 52.0449 756.714 55.4378 756.714H74.0761C82.9601 756.714 90.1476 749.527 90.1476 740.643C90.1476 731.759 82.9601 724.571 74.0761 724.571H40.1476C38.027 724.571 36.0181 723.634 34.6565 722.004C33.2949 720.375 32.7369 718.232 33.1163 716.156L40.2592 676.871Z" fill="black"/>
<path d="M85.8807 812.754C88.4256 809.74 88.0461 805.231 85.0323 802.686C82.0186 800.141 77.5092 800.52 74.9643 803.534L42.617 841.775C37.2816 848.07 34.2456 855.995 34.0223 864.21C34.0223 864.523 34 864.858 34 865.17C34 865.215 34 865.237 34 865.282C34 885.016 49.9839 901 69.7182 901C89.4525 901 105.436 885.016 105.436 865.282C105.436 846.195 90.457 830.591 71.6157 829.608L85.8807 812.731V812.754ZM91.1491 865.282C91.1491 870.966 88.8912 876.417 84.8721 880.436C80.853 884.455 75.402 886.713 69.7182 886.713C64.0343 886.713 58.5833 884.455 54.5642 880.436C50.5452 876.417 48.2873 870.966 48.2873 865.282C48.2873 859.598 50.5452 854.147 54.5642 850.128C58.5833 846.109 64.0343 843.851 69.7182 843.851C75.402 843.851 80.853 846.109 84.8721 850.128C88.8912 854.147 91.1491 859.598 91.1491 865.282Z" fill="black"/>
<path d="M33 938.142C33 934.191 36.1914 931 40.1417 931H97.2751C99.8416 931 102.185 932.361 103.457 934.593C104.729 936.825 104.729 939.548 103.435 941.757L53.443 1027.46C51.4568 1030.87 47.0825 1032.01 43.6679 1030.02C40.2533 1028.04 39.1151 1023.66 41.1013 1020.25L84.8441 945.283H40.1417C36.1914 945.283 33 942.092 33 938.142Z" fill="black"/>
<path d="M100.857 1089.57C100.857 1073.79 88.067 1061 72.2857 1061H65.1429C49.3616 1061 36.5714 1073.79 36.5714 1089.57C36.5714 1097.29 39.6295 1104.3 44.6071 1109.44C37.5759 1114.64 33 1123.01 33 1132.43C33 1148.21 45.7902 1161 61.5714 1161H75.8571C91.6384 1161 104.429 1148.21 104.429 1132.43C104.429 1123.01 99.8527 1114.64 92.8214 1109.44C97.7991 1104.3 100.857 1097.29 100.857 1089.57ZM72.308 1118.14H75.8571C83.7366 1118.14 90.1429 1124.55 90.1429 1132.43C90.1429 1140.31 83.7366 1146.71 75.8571 1146.71H61.5714C53.692 1146.71 47.2857 1140.31 47.2857 1132.43C47.2857 1124.55 53.692 1118.14 61.5714 1118.14H65.1205H65.1429H72.2857H72.308ZM72.308 1103.86H65.1429C57.2634 1103.86 50.8571 1097.45 50.8571 1089.57C50.8571 1081.69 57.2634 1075.29 65.1429 1075.29H72.2857C80.1652 1075.29 86.5714 1081.69 86.5714 1089.57C86.5714 1097.45 80.1875 1103.86 72.2857 1103.86H72.308Z" fill="black"/>
<path d="M47.2841 1226.71C47.2841 1232.39 49.5415 1237.84 53.5596 1241.86C57.5778 1245.88 63.0276 1248.14 68.7102 1248.14C74.3928 1248.14 79.8426 1245.88 83.8608 1241.86C87.8789 1237.84 90.1363 1232.39 90.1363 1226.71C90.1363 1221.03 87.8789 1215.58 83.8608 1211.56C79.8426 1207.54 74.3928 1205.28 68.7102 1205.28C63.0276 1205.28 57.5778 1207.54 53.5596 1211.56C49.5415 1215.58 47.2841 1221.03 47.2841 1226.71ZM66.8131 1262.38C47.976 1261.39 33 1245.79 33 1226.71C33 1206.98 48.9803 1191 68.7102 1191C88.4401 1191 104.42 1206.98 104.42 1226.71C104.42 1227.29 104.398 1227.89 104.376 1228.47C103.996 1236.44 100.983 1244.1 95.8053 1250.21L63.4429 1288.47C60.8986 1291.48 56.3902 1291.86 53.3771 1289.31C50.3641 1286.77 49.9847 1282.26 52.529 1279.25L66.7908 1262.38H66.8131Z" fill="black"/>
<path d="M41.7133 1328.15C41.7133 1325.51 40.2625 1323.1 37.9411 1321.85C35.6197 1320.6 32.8073 1320.73 30.5975 1322.21L9.1696 1336.49C5.8884 1338.68 5.0179 1343.1 7.2053 1346.4C9.3928 1349.71 13.8346 1350.58 17.1158 1348.39L27.428 1341.49V1406.71H13.1427C9.1919 1406.71 6 1409.91 6 1413.86C6 1417.81 9.1919 1421 13.1427 1421H34.5707H55.9986C59.9494 1421 63.1413 1417.81 63.1413 1413.86C63.1413 1409.91 59.9494 1406.71 55.9986 1406.71H41.7133V1328.15Z" fill="black"/>
<path d="M63 1356.71C63 1336.98 78.9821 1321 98.7143 1321C118.446 1321 134.429 1336.98 134.429 1356.71V1385.29C134.429 1405.02 118.446 1421 98.7143 1421C78.9821 1421 63 1405.02 63 1385.29V1356.71ZM98.7143 1335.29C86.8839 1335.29 77.2857 1344.88 77.2857 1356.71V1385.29C77.2857 1397.12 86.8839 1406.71 98.7143 1406.71C110.545 1406.71 120.143 1397.12 120.143 1385.29V1356.71C120.143 1344.88 110.545 1335.29 98.7143 1335.29Z" fill="black"/>
</svg>
